<svg xmlns="http://www.w3.org/2000/svg" width="1600" height="1000" viewBox="0 0 1600 1000" fill="none">
  <defs>
    <linearGradient id="bg" x1="160" y1="110" x2="1420" y2="920" gradientUnits="userSpaceOnUse">
      <stop stop-color="#2563EB"/>
      <stop offset="1" stop-color="#0F766E"/>
    </linearGradient>
    <filter id="shadow" x="76" y="76" width="1448" height="852" filterUnits="userSpaceOnUse">
      <feDropShadow dx="0" dy="28" stdDeviation="34" flood-color="#0F172A" flood-opacity="0.16"/>
    </filter>
  </defs>
  <rect width="1600" height="1000" rx="40" fill="#EFF6FF"/>
  <rect x="68" y="68" width="1464" height="864" rx="46" fill="url(#bg)"/>
  <g filter="url(#shadow)"><rect x="134" y="118" width="1332" height="764" rx="42" fill="rgba(255,255,255,.09)" stroke="rgba(255,255,255,.18)" stroke-width="2"/></g>
  <circle cx="230" cy="210" r="120" fill="rgba(255,255,255,.10)"/>
  <circle cx="1320" cy="774" r="172" fill="rgba(255,255,255,.08)"/>
  <circle cx="1294" cy="208" r="20" fill="#A7F3D0" fill-opacity="0.38"/>
  <circle cx="1246" cy="164" r="10" fill="white" fill-opacity="0.60"/>
  
        <circle cx="390" cy="330" r="66" fill="rgba(255,255,255,.24)"/>
        <circle cx="560" cy="300" r="78" fill="rgba(255,255,255,.30)"/>
        <circle cx="740" cy="330" r="66" fill="rgba(255,255,255,.24)"/>
        <circle cx="930" cy="308" r="74" fill="rgba(255,255,255,.28)"/>
        <circle cx="1110" cy="334" r="64" fill="rgba(255,255,255,.22)"/>
        <rect x="284" y="424" width="980" height="250" rx="124" fill="rgba(255,255,255,.18)"/>
        <rect x="430" y="384" width="720" height="316" rx="158" fill="rgba(255,255,255,.24)"/>
        <rect x="238" y="710" width="1120" height="28" rx="14" fill="rgba(255,255,255,.14)"/>
        
</svg>