<svg xmlns="http://www.w3.org/2000/svg" width="1600" height="1000" viewBox="0 0 1600 1000" fill="none">
  <defs>
    <linearGradient id="bg" x1="160" y1="110" x2="1420" y2="920" gradientUnits="userSpaceOnUse">
      <stop stop-color="#0E7490"/>
      <stop offset="1" stop-color="#2563EB"/>
    </linearGradient>
    <filter id="shadow" x="76" y="76" width="1448" height="852" filterUnits="userSpaceOnUse">
      <feDropShadow dx="0" dy="28" stdDeviation="34" flood-color="#0F172A" flood-opacity="0.16"/>
    </filter>
  </defs>
  <rect width="1600" height="1000" rx="40" fill="#EFF6FF"/>
  <rect x="68" y="68" width="1464" height="864" rx="46" fill="url(#bg)"/>
  <g filter="url(#shadow)"><rect x="134" y="118" width="1332" height="764" rx="42" fill="rgba(255,255,255,.09)" stroke="rgba(255,255,255,.18)" stroke-width="2"/></g>
  <circle cx="230" cy="210" r="120" fill="rgba(255,255,255,.10)"/>
  <circle cx="1320" cy="774" r="172" fill="rgba(255,255,255,.08)"/>
  <circle cx="1294" cy="208" r="20" fill="#99F6E4" fill-opacity="0.38"/>
  <circle cx="1246" cy="164" r="10" fill="white" fill-opacity="0.60"/>
  
        <rect x="260" y="174" width="1050" height="360" rx="32" fill="rgba(255,255,255,.15)" stroke="rgba(255,255,255,.24)" stroke-width="10"/>
        <path d="M360 452l180-126 138 86 208-168 144 116" stroke="rgba(255,255,255,.80)" stroke-width="18" stroke-linecap="round" stroke-linejoin="round"/>
        <circle cx="360" cy="452" r="18" fill="white"/>
        <circle cx="540" cy="326" r="18" fill="white"/>
        <circle cx="678" cy="412" r="18" fill="white"/>
        <circle cx="886" cy="244" r="18" fill="white"/>
        <circle cx="1030" cy="360" r="18" fill="white"/>
        <path d="M432 678c0-68 52-120 120-120s120 52 120 120H432Zm316 0c0-68 52-120 120-120s120 52 120 120H748Z" fill="rgba(255,255,255,.22)"/>
        <circle cx="552" cy="560" r="52" fill="rgba(255,255,255,.28)"/>
        <circle cx="868" cy="560" r="52" fill="rgba(255,255,255,.28)"/>
        
</svg>