<svg xmlns="http://www.w3.org/2000/svg" width="1600" height="1000" viewBox="0 0 1600 1000" fill="none">
      <defs>
        <linearGradient id="bg" x1="200" y1="160" x2="1320" y2="860" gradientUnits="userSpaceOnUse">
          <stop stop-color="#4F46E5"/>
          <stop offset="1" stop-color="#0EA5E9"/>
        </linearGradient>
        <filter id="shadow" x="100" y="80" width="1400" height="840" filterUnits="userSpaceOnUse">
          <feDropShadow dx="0" dy="30" stdDeviation="34" flood-color="#0F172A" flood-opacity="0.18"/>
        </filter>
      </defs>
      <rect width="1600" height="1000" rx="40" fill="#EFF6FF"/>
      <rect x="68" y="68" width="1464" height="864" rx="44" fill="url(#bg)"/>
      <g filter="url(#shadow)">
        <rect x="144" y="122" width="1312" height="756" rx="40" fill="rgba(255,255,255,.10)" stroke="rgba(255,255,255,.18)" stroke-width="2"/>
      </g>
      <circle cx="238" cy="214" r="120" fill="rgba(255,255,255,.12)"/>
      <circle cx="1346" cy="770" r="168" fill="rgba(255,255,255,.08)"/>
      
        <rect x="248" y="196" width="520" height="296" rx="30" fill="rgba(255,255,255,.18)" stroke="rgba(255,255,255,.34)" stroke-width="10"/>
        <rect x="292" y="240" width="432" height="208" rx="18" fill="rgba(255,255,255,.22)"/>
        <rect x="454" y="492" width="108" height="22" rx="11" fill="rgba(255,255,255,.24)"/>
        <rect x="374" y="522" width="268" height="20" rx="10" fill="rgba(255,255,255,.18)"/>
        <circle cx="364" cy="628" r="42" fill="rgba(255,255,255,.26)"/>
        <circle cx="512" cy="628" r="42" fill="rgba(255,255,255,.30)"/>
        <circle cx="660" cy="628" r="42" fill="rgba(255,255,255,.26)"/>
        <rect x="300" y="668" width="424" height="34" rx="17" fill="rgba(255,255,255,.18)"/>
        
    </svg>